<?xml version="1.0" encoding="UTF-8"?>
<svg version="1.1" xmlns="http://www.w3.org/2000/svg" width="32" height="32">
<path d="M0 0 C0 0.99 0 1.98 0 3 C-1.94140625 4.47265625 -1.94140625 4.47265625 -4.5625 6.0625 C-11.72891177 10.86043809 -16.98179585 17.47869359 -19 26 C-19.66 26 -20.32 26 -21 26 C-22.64220655 23.59004706 -24.15026599 21.19685209 -25.625 18.6875 C-26.25535156 17.65206055 -26.25535156 17.65206055 -26.8984375 16.59570312 C-30 11.38447392 -30 11.38447392 -30 8 C-23.47692308 7.63076923 -23.47692308 7.63076923 -21.0625 9.5 C-20.711875 9.995 -20.36125 10.49 -20 11 C-19.38125 10.67 -18.7625 10.34 -18.125 10 C-16 9 -16 9 -14 9 C-12.90177577 8.10461402 -11.84468638 7.15827483 -10.8125 6.1875 C-7.3991622 3.15421872 -4.26959141 1.56842133 0 0 Z M-24 13 C-23 15 -23 15 -23 15 Z M-22 16 C-21.67 16.99 -21.34 17.98 -21 19 C-21 18.01 -21 17.02 -21 16 C-21.33 16 -21.66 16 -22 16 Z " fill="#249D57" transform="translate(31,3)"/>
<path d="M0 0 C1.65 0 3.3 0 5 0 C5.33 1.32 5.66 2.64 6 4 C4.35 4.33 2.7 4.66 1 5 C0.67 3.35 0.34 1.7 0 0 Z " fill="#249D57" transform="translate(0,5)"/>
</svg>
