<svg width="34" height="34" viewBox="0 0 34 34" fill="none" xmlns="http://www.w3.org/2000/svg">
<g clip-path="url(#clip0_29_395)">
<path fill-rule="evenodd" clip-rule="evenodd" d="M23.1308 30.5303V17.9703L34 11.6949V23.7741C34 24.0792 33.8477 24.3429 33.5835 24.4955L23.1308 30.5303ZM10.056 24.2878H1.28629C0.575942 24.2878 0 23.7119 0 23.0015C0 22.2912 0.575942 21.7152 1.28629 21.7152H10.0103C11.5188 21.7152 11.5188 19.3062 10.0103 19.3062H4.76777C4.05742 19.3062 3.48141 18.7302 3.48141 18.0199C3.48141 17.3095 4.05742 16.7336 4.76777 16.7336H8.86809C10.3766 16.7336 10.3766 14.3245 8.86809 14.3245H1.28636C0.576008 14.3245 6.64063e-05 13.7486 6.64063e-05 13.0382C6.64063e-05 12.3279 0.576008 11.7519 1.28636 11.7519H10.0977L20.8684 17.9705V30.5303L10.056 24.2878ZM11.1223 9.73768L21.9996 16.0177L32.8769 9.73761L22.0204 3.46973H14.8974C14.1871 3.46973 13.6112 4.04567 13.6112 4.75602C13.6112 5.46636 14.1871 6.0423 14.8974 6.0423H16.4027C16.541 6.0423 16.6569 6.13122 16.6927 6.26477C16.7284 6.39831 16.6726 6.53325 16.5528 6.60244L11.1223 9.73768ZM10.5031 3.46973C11.2135 3.46973 11.7894 4.04567 11.7894 4.75602C11.7894 5.46636 11.2135 6.0423 10.5031 6.0423H2.68467C1.97432 6.0423 1.39832 5.46636 1.39832 4.75602C1.39832 4.04567 1.97426 3.46973 2.68467 3.46973H10.5031Z" fill="#249D57"/>
</g>
<defs>
<clipPath id="clip0_29_395">
<rect width="34" height="34" fill="white"/>
</clipPath>
</defs>
</svg>
