<svg width="26" height="34" viewBox="0 0 26 34" fill="none" xmlns="http://www.w3.org/2000/svg">
<path d="M3.98438 34H11.9531C13.0514 34 13.9453 33.106 13.9453 32.0078V24.0391H1.99219V32.0078C1.99219 33.106 2.88615 34 3.98438 34ZM8.96484 26.0312H10.957V28.0234H8.96484V26.0312ZM8.96484 30.0156H10.957V32.0078H8.96484V30.0156ZM4.98047 26.0312H6.97266V28.0234H4.98047V26.0312ZM4.98047 30.0156H6.97266V32.0078H4.98047V30.0156Z" fill="#249D57"/>
<path d="M13.9453 1.99219L11.9531 0L9.96094 1.99219L7.96875 0L5.97656 1.99219L3.98438 0L1.99219 1.99219V6.04297H13.9453V1.99219Z" fill="#249D57"/>
<path d="M15.9375 30.0156H20.918V10.0273H17.9297V19.2298C17.9297 20.2784 17.5046 21.3056 16.7624 22.0469L15.9375 22.8718V30.0156Z" fill="#249D57"/>
<path d="M22.9102 10.0273H25.8984V30.0156H22.9102V10.0273Z" fill="#249D57"/>
<path fill-rule="evenodd" clip-rule="evenodd" d="M0 19.2298V10.0273C0 8.92914 0.894043 8.03516 1.99219 8.03516H13.9453C15.0435 8.03516 15.9375 8.92914 15.9375 10.0273V19.2298C15.9375 19.7542 15.7246 20.2677 15.354 20.6383L14.5288 21.4633C14.3589 21.6334 14.2354 21.8348 14.1377 22.0469H1.7998C1.70215 21.8348 1.57861 21.6334 1.40869 21.4633L0.583496 20.6383C0.212891 20.2677 0 19.7542 0 19.2298Z" fill="#249D57"/>
<path d="M8.54969 15L10.886 12.6636C11.038 12.5117 11.038 12.266 10.886 12.114C10.734 11.962 10.4883 11.962 10.3363 12.114L7.99996 14.4504L5.66368 12.114C5.51164 11.962 5.266 11.962 5.11403 12.114C4.96199 12.266 4.96199 12.5117 5.11403 12.6636L7.45031 15L5.11403 17.3364C4.96199 17.4884 4.96199 17.7341 5.11403 17.8861C5.18977 17.9619 5.28935 18 5.38886 18C5.48837 18 5.58788 17.9619 5.66368 17.8861L7.99996 15.5497L10.3363 17.8861C10.4121 17.9619 10.5116 18 10.6111 18C10.7107 18 10.8102 17.9619 10.886 17.8861C11.038 17.7341 11.038 17.4884 10.886 17.3364L8.54969 15Z" fill="white" stroke="white" stroke-width="0.5"/>
</svg>
