<svg width="27" height="34" viewBox="0 0 27 34" fill="none" xmlns="http://www.w3.org/2000/svg">
<path fill-rule="evenodd" clip-rule="evenodd" d="M0.685455 0H18.8493C19.9538 0 20.8493 0.89543 20.8493 2V3.90746C20.8493 4.72176 21.511 5.38349 22.3253 5.38349H24.2328C25.3373 5.38349 26.2328 6.27892 26.2328 7.38349V33.3145C26.2328 33.6921 25.9248 34 25.5473 34H0.685455C0.307913 34 0 33.6921 0 33.3145V0.685456C0 0.307913 0.307913 0 0.685455 0ZM8.08578 4.60779C7.88496 4.1295 7.52065 3.83291 7.10914 3.69191C7.09619 3.68747 7.08738 3.67536 7.08738 3.66167C7.08738 3.34872 6.83366 3.095 6.52072 3.095C6.20777 3.095 5.95405 3.34872 5.95405 3.66167C5.95405 3.67961 5.94252 3.69552 5.92561 3.70153C5.32441 3.91514 4.90601 4.43422 4.93823 5.0964C4.97945 5.94668 5.68169 6.32458 6.43324 6.44797C6.6247 6.47942 7.05891 6.55443 7.08852 6.79838C7.09107 6.81956 7.0922 6.82438 7.09227 6.82658C7.0961 6.98801 6.77607 7.05516 6.65934 7.06932C6.61238 7.07499 6.57717 7.07811 6.5538 7.07867C6.3068 7.08455 6.00037 6.98878 5.93351 6.72061C5.85892 6.41744 5.55271 6.23214 5.24954 6.30666C4.94637 6.38125 4.76107 6.68746 4.83559 6.99063C4.9758 7.55317 5.39351 7.95048 5.93552 8.11908C5.94648 8.12249 5.95405 8.1326 5.95405 8.14408C5.95405 8.45702 6.20777 8.71075 6.52072 8.71075C6.83366 8.71075 7.08738 8.45702 7.08738 8.14408C7.08738 8.13978 7.09029 8.13601 7.09445 8.13488C7.73 7.96248 8.23787 7.5044 8.22115 6.80008C8.21987 6.74498 8.21711 6.7 8.213 6.66564C8.10802 5.80126 7.38439 5.45878 6.61478 5.33242C6.46858 5.3084 6.07666 5.23941 6.06717 5.04334C6.05846 4.86343 6.2405 4.77113 6.39244 4.7406C6.65587 4.68755 6.93176 4.78579 7.04113 5.04625C7.16211 5.33475 7.49418 5.47054 7.78269 5.34949C8.07105 5.22829 8.20684 4.89629 8.08578 4.60779ZM6.52072 23.0571C5.36287 23.0571 4.42426 23.9958 4.42426 25.1536C4.42426 26.3115 5.36287 27.2501 6.52072 27.2501C7.67856 27.2501 8.61718 26.3115 8.61718 25.1536C8.61718 23.9958 7.67856 23.0571 6.52072 23.0571ZM5.95405 12.6516V14.875C5.95405 15.0991 6.08417 15.2928 6.27301 15.3847L7.84629 16.2931C8.11645 16.4496 8.46233 16.3574 8.61881 16.0873C8.77528 15.8171 8.68312 15.4712 8.41296 15.3148L8.08732 15.1268C7.46852 14.7695 7.08731 14.1092 7.08731 13.3947V12.6517C7.08731 12.3388 6.83359 12.085 6.52065 12.085C6.2077 12.085 5.95405 12.3387 5.95405 12.6516ZM22.1833 0.200813C22.1016 0.119076 21.9825 0.190763 21.9825 0.306289V3.90746C21.9825 4.09623 22.1365 4.25022 22.3252 4.25022H25.9265C26.042 4.25022 26.1137 4.13112 26.0319 4.04948L22.1833 0.200813ZM7.08795 20.91C6.74646 20.6545 6.29497 20.6545 5.95348 20.91C5.06452 21.5755 5.26604 21.5021 4.15736 21.5638C3.73151 21.5875 3.38563 21.8777 3.2883 22.293C3.035 23.3742 3.14231 23.1884 2.33262 23.9484C2.02159 24.2403 1.94317 24.6849 2.13563 25.0656C2.63663 26.0567 2.59931 25.8453 2.46756 26.948C2.41691 27.3715 2.64273 27.7625 3.03479 27.9304C4.05557 28.3676 3.89124 28.2297 4.49906 29.159C4.73245 29.516 5.15675 29.6704 5.56503 29.547C6.62803 29.2258 6.41348 29.2258 7.47647 29.547C7.88476 29.6704 8.30905 29.516 8.54252 29.159C8.76302 28.8219 8.97439 28.3725 9.35193 28.2108L10.0067 27.9304C10.3989 27.7625 10.6246 27.3715 10.5739 26.948C10.4422 25.8453 10.4049 26.0567 10.9059 25.0656C11.0983 24.6849 11.0198 24.2403 10.7089 23.9484C9.89919 23.1884 10.0064 23.3742 9.7532 22.293C9.65595 21.8777 9.31 21.5875 8.88415 21.5638C7.77539 21.5021 7.97691 21.5755 7.08795 20.91ZM8.90215 30.3745C8.44683 30.6781 8.07115 31.2741 8.30211 31.7702C8.33087 31.8319 8.41714 31.8359 8.45143 31.7769C8.84297 31.1031 9.61291 30.7447 10.3806 30.8788C10.4479 30.8906 10.5003 30.8221 10.4715 30.7602L10.033 29.8182C9.93009 29.5972 9.62452 29.5753 9.49112 29.7792C9.33255 30.0216 9.13117 30.2219 8.90215 30.3745ZM4.73947 31.7702C4.9704 31.2741 4.5947 30.6781 4.13939 30.3745C3.91037 30.2218 3.70901 30.0216 3.55053 29.7792C3.41713 29.5753 3.11156 29.5972 3.00869 29.8182L2.57012 30.7602C2.54129 30.8221 2.59378 30.8906 2.66107 30.8788C3.42871 30.7447 4.19862 31.1031 4.59015 31.7769C4.62443 31.8358 4.71064 31.8319 4.73947 31.7702ZM6.52072 11.1328C4.45401 11.1328 2.77851 12.8083 2.77851 14.875C2.77851 16.9417 4.45401 18.6172 6.52072 18.6172C8.58743 18.6172 10.2629 16.9417 10.2629 14.875C10.2629 12.8082 8.58743 11.1328 6.52072 11.1328ZM6.52072 2.36116C4.56472 2.36116 2.97904 3.94684 2.97904 5.90284C2.97904 7.85883 4.56472 9.44451 6.52072 9.44451C8.47671 9.44451 10.0624 7.85883 10.0624 5.90284C10.0624 3.94677 8.47671 2.36116 6.52072 2.36116ZM13.0415 5.29842H19.5779C19.8909 5.29842 20.1446 5.04469 20.1446 4.73175C20.1446 4.41881 19.8909 4.16508 19.5779 4.16508H13.0415C12.7286 4.16508 12.4748 4.41881 12.4748 4.73175C12.4748 5.04469 12.7286 5.29842 13.0415 5.29842ZM13.0415 7.64052H22.6771C22.99 7.64052 23.2437 7.3868 23.2437 7.07386C23.2437 6.76091 22.99 6.50719 22.6771 6.50719H13.0415C12.7286 6.50719 12.4748 6.76091 12.4748 7.07386C12.4748 7.38687 12.7286 7.64052 13.0415 7.64052ZM13.0415 14.2705H19.5779C19.8909 14.2705 20.1446 14.0168 20.1446 13.7039C20.1446 13.3909 19.8909 13.1372 19.5779 13.1372H13.0415C12.7286 13.1372 12.4748 13.3909 12.4748 13.7039C12.4748 14.0168 12.7286 14.2705 13.0415 14.2705ZM13.0415 16.6126H22.6771C22.99 16.6126 23.2437 16.3589 23.2437 16.046C23.2437 15.733 22.99 15.4793 22.6771 15.4793H13.0415C12.7286 15.4793 12.4748 15.733 12.4748 16.046C12.4748 16.3589 12.7286 16.6126 13.0415 16.6126ZM13.0415 24.6594H19.5779C19.8909 24.6594 20.1446 24.4057 20.1446 24.0927C20.1446 23.7798 19.8909 23.5261 19.5779 23.5261H13.0415C12.7286 23.5261 12.4748 23.7798 12.4748 24.0927C12.4748 24.4057 12.7286 24.6594 13.0415 24.6594ZM13.0415 27.0015H22.6771C22.99 27.0015 23.2437 26.7478 23.2437 26.4348C23.2437 26.1219 22.99 25.8682 22.6771 25.8682H13.0415C12.7286 25.8682 12.4748 26.1219 12.4748 26.4348C12.4748 26.7478 12.7286 27.0015 13.0415 27.0015Z" fill="white"/>
</svg>
