<svg width="35" height="34" viewBox="0 0 35 34" fill="none" xmlns="http://www.w3.org/2000/svg">
<path d="M31.3566 13.0359H28.3529V9.15646C28.3521 8.45659 28.0737 7.78561 27.5789 7.29073C27.084 6.79584 26.413 6.51747 25.7131 6.51668C25.2244 6.50152 24.0969 6.52761 23.5976 6.51668C21.0762 -2.1715 8.7036 -2.17299 6.17387 6.51679L3.87948 6.51667C2.85082 6.51749 1.86453 6.92649 1.13716 7.65387C0.409788 8.38125 0.000802016 9.36755 0 10.3962V29.9417C0.000487858 31.0168 0.427373 32.0478 1.18702 32.8086C1.94667 33.5694 2.97706 33.9979 4.05218 34H31.3566C32.2013 33.9986 33.0109 33.6621 33.6077 33.0642C34.2044 32.4663 34.5394 31.656 34.5391 30.8113V27.4992H26.9775C21.7029 27.2955 21.712 19.7385 26.9776 19.5429H34.5391V16.2247C34.5394 15.38 34.2044 14.5697 33.6077 13.9718C33.0109 13.3739 32.2013 13.0373 31.3566 13.0359ZM3.87948 13.0359C3.18225 13.0303 2.5155 12.7494 2.02447 12.2543C1.53344 11.7593 1.25792 11.0903 1.25793 10.3931C1.25794 9.6958 1.53347 9.0268 2.02451 8.53178C2.51555 8.03677 3.18231 7.75585 3.87954 7.75022C4.34823 7.74598 5.43615 7.7533 5.91488 7.75022C5.64482 9.55582 5.93545 11.4008 6.74752 13.0359H3.87948ZM15.629 11.8147C15.6449 11.9048 15.6409 11.9973 15.6173 12.0857C15.5937 12.1741 15.551 12.2563 15.4922 12.3264C15.4334 12.3965 15.3599 12.4529 15.277 12.4916C15.1941 12.5302 15.1037 12.5503 15.0122 12.5503C14.9207 12.5503 14.8303 12.5302 14.7474 12.4916C14.6645 12.4529 14.591 12.3965 14.5323 12.3264C14.4735 12.2563 14.4307 12.1741 14.4071 12.0857C14.3835 11.9973 14.3795 11.9048 14.3954 11.8147C13.5996 11.6224 12.6107 9.91192 13.8341 9.64365C13.9976 9.63284 14.1586 9.68708 14.2823 9.79453C14.4059 9.90199 14.482 10.054 14.4941 10.2173C14.5059 10.3467 14.5655 10.4671 14.6613 10.5549C14.7571 10.6427 14.8822 10.6917 15.0122 10.6922C15.1496 10.6922 15.2813 10.6376 15.3785 10.5405C15.4757 10.4433 15.5302 10.3115 15.5302 10.1741C15.5302 10.0367 15.4757 9.90495 15.3785 9.80779C15.2813 9.71063 15.1496 9.65604 15.0122 9.65604C14.6046 9.65249 14.211 9.50694 13.8992 9.24447C13.5873 8.98199 13.3768 8.619 13.3037 8.21801C13.2307 7.81701 13.2998 7.4031 13.499 7.04754C13.6983 6.69197 14.0153 6.417 14.3954 6.26998L14.3954 6.13429C14.3972 6.04822 14.4169 5.96347 14.4532 5.88539C14.4894 5.80731 14.5415 5.73761 14.6061 5.68069C14.6707 5.62377 14.7464 5.58086 14.8284 5.55469C14.9104 5.52852 14.997 5.51966 15.0826 5.52865C15.1682 5.53764 15.251 5.5643 15.3258 5.60694C15.4006 5.64958 15.4657 5.70727 15.5171 5.77637C15.5684 5.84547 15.6049 5.92447 15.6241 6.00837C15.6434 6.09228 15.645 6.17927 15.6289 6.26385C16.4047 6.44934 17.4096 8.1056 16.2087 8.39787C16.0462 8.41401 15.8838 8.36545 15.7568 8.2627C15.6298 8.15995 15.5484 8.01129 15.5302 7.84895C15.5195 7.74955 15.4803 7.65537 15.4172 7.57777C15.3542 7.50018 15.2701 7.44248 15.175 7.41164C15.0799 7.3808 14.9779 7.37814 14.8813 7.40397C14.7847 7.4298 14.6977 7.48302 14.6306 7.55721C14.5636 7.63141 14.5195 7.72341 14.5036 7.82211C14.4877 7.92081 14.5008 8.02201 14.5411 8.11349C14.5814 8.20496 14.6474 8.28282 14.731 8.33765C14.8145 8.39249 14.9122 8.42197 15.0122 8.42254C15.4202 8.42671 15.814 8.57288 16.126 8.83593C16.4379 9.09898 16.6485 9.46247 16.7215 9.86394C16.7945 10.2654 16.7253 10.6798 16.526 11.0358C16.3266 11.3918 16.0094 11.6672 15.629 11.8147ZM20.4274 12.635C20.3446 12.7596 20.2782 12.8943 20.2301 13.0359H17.6766C18.5267 12.4421 19.1653 11.5927 19.4995 10.611C19.8336 9.62937 19.846 8.56673 19.5347 7.57758C19.2235 6.58844 18.6048 5.72435 17.7688 5.11094C16.9327 4.49754 15.9227 4.16679 14.8858 4.16679C13.8488 4.16679 12.8389 4.49754 12.0028 5.11094C11.1667 5.72435 10.5481 6.58844 10.2368 7.57758C9.92559 8.56673 9.93795 9.62937 10.2721 10.611C10.6063 11.5927 11.2448 12.4421 12.0949 13.0359H9.5476C9.00446 12.242 8.62726 11.3466 8.43863 10.4033C8.25 9.46006 8.25383 8.48843 8.44988 7.54668C8.78239 6.08958 9.60131 4.78921 10.7717 3.85979C11.9422 2.93038 13.3943 2.42738 14.8888 2.43365C20.0752 2.36002 23.2938 8.34033 20.4274 12.635ZM27.1194 13.0359C26.2184 13.0358 23.907 13.0361 23.0364 13.0359C23.8428 11.399 24.1311 9.55517 23.8629 7.75022C24.2682 7.75758 25.3224 7.74491 25.7132 7.75022C25.8979 7.75013 26.0808 7.78645 26.2514 7.85708C26.4221 7.92772 26.5771 8.0313 26.7077 8.1619C26.8383 8.2925 26.9419 8.44756 27.0125 8.61821C27.0832 8.78886 27.1195 8.97176 27.1194 9.15646V13.0359Z" fill="#249D57"/>
<path d="M26.9773 20.7764C23.3517 20.8858 23.3483 26.1515 26.9774 26.2656H34.5389V20.7764C33.8422 20.7795 27.8336 20.7742 26.9773 20.7764ZM27.4584 24.4092C27.2248 24.405 27.0022 24.3092 26.8384 24.1426C26.6747 23.9759 26.583 23.7516 26.583 23.5179C26.583 23.2843 26.6747 23.0599 26.8385 22.8933C27.0022 22.7266 27.2248 22.6309 27.4585 22.6267C27.6921 22.6308 27.9149 22.7265 28.0787 22.8932C28.2425 23.0599 28.3343 23.2842 28.3343 23.5179C28.3343 23.7517 28.2425 23.976 28.0786 24.1427C27.9148 24.3094 27.6921 24.4051 27.4584 24.4092Z" fill="#249D57"/>
</svg>
