<svg width="34" height="34" viewBox="0 0 34 34" fill="none" xmlns="http://www.w3.org/2000/svg">
<path d="M27.8161 0H6.18136C5.81106 0.00426352 5.45461 0.141362 5.17689 0.386335C6.27893 0.774062 7.24853 1.46615 7.97332 2.3824C8.69811 3.29864 9.14842 4.40153 9.27204 5.56322C9.29567 5.76859 9.29567 5.97599 9.27204 6.18136V32.4521C9.27131 32.7477 9.35536 33.0373 9.51422 33.2865C9.67309 33.5358 9.9001 33.7343 10.1683 33.8584C10.4372 33.9822 10.736 34.0261 11.0291 33.985C11.3222 33.9439 11.5974 33.8195 11.8219 33.6266L16.2261 29.856L20.6303 33.6266C20.9102 33.866 21.2664 33.9976 21.6348 33.9976C22.0031 33.9976 22.3593 33.866 22.6392 33.6266L27.0435 29.856L31.4477 33.6266C31.7276 33.866 32.0838 33.9975 32.4521 33.9975C32.6757 33.9959 32.8966 33.9486 33.1012 33.8584C33.3694 33.7343 33.5964 33.5358 33.7553 33.2865C33.9142 33.0373 33.9982 32.7477 33.9975 32.4521V6.18136C33.9975 4.54196 33.3462 2.96971 32.187 1.81048C31.0278 0.651249 29.4555 0 27.8161 0ZM26.2708 21.6348H16.9987C16.5889 21.6348 16.1958 21.4719 15.906 21.1821C15.6162 20.8923 15.4534 20.4993 15.4534 20.0894C15.4534 19.6796 15.6162 19.2865 15.906 18.9967C16.1958 18.7069 16.5889 18.5441 16.9987 18.5441H26.2708C26.6806 18.5441 27.0737 18.7069 27.3635 18.9967C27.6533 19.2865 27.8161 19.6796 27.8161 20.0894C27.8161 20.4993 27.6533 20.8923 27.3635 21.1821C27.0737 21.4719 26.6806 21.6348 26.2708 21.6348ZM26.2708 15.4534H16.9987C16.5889 15.4534 16.1958 15.2906 15.906 15.0008C15.6162 14.711 15.4534 14.3179 15.4534 13.9081C15.4534 13.4982 15.6162 13.1051 15.906 12.8153C16.1958 12.5255 16.5889 12.3627 16.9987 12.3627H26.2708C26.6806 12.3627 27.0737 12.5255 27.3635 12.8153C27.6533 13.1051 27.8161 13.4982 27.8161 13.9081C27.8161 14.3179 27.6533 14.711 27.3635 15.0008C27.0737 15.2906 26.6806 15.4534 26.2708 15.4534ZM26.2708 9.27204H16.9987C16.5889 9.27204 16.1958 9.10923 15.906 8.81942C15.6162 8.52961 15.4534 8.13655 15.4534 7.7267C15.4534 7.31685 15.6162 6.92379 15.906 6.63398C16.1958 6.34417 16.5889 6.18136 16.9987 6.18136H26.2708C26.6806 6.18136 27.0737 6.34417 27.3635 6.63398C27.6533 6.92379 27.8161 7.31685 27.8161 7.7267C27.8161 8.13655 27.6533 8.52961 27.3635 8.81942C27.0737 9.10923 26.6806 9.27204 26.2708 9.27204ZM6.18136 6.18136V18.5441H1.54534C1.13549 18.5441 0.742427 18.3813 0.45262 18.0915C0.162812 17.8017 0 17.4086 0 16.9987V6.18136C0 5.96501 0 5.76412 0 5.56322C0.0819699 4.74352 0.486207 3.98996 1.12378 3.46831C1.76136 2.94665 2.58005 2.69964 3.39975 2.78161C4.21945 2.86358 4.97301 3.26782 5.49467 3.9054C6.01632 4.54297 6.26333 5.36166 6.18136 6.18136Z" fill="#249D57"/>
</svg>
