<svg width="34" height="34" viewBox="0 0 34 34" fill="none" xmlns="http://www.w3.org/2000/svg">
<g clip-path="url(#clip0_29_416)">
<path d="M27.3085 16.0306C24.6306 16.0306 22.2224 14.8549 20.5719 12.9929H3.80059V10.6822H19.0821C18.6736 9.76614 18.4132 8.76997 18.3328 7.7241H0.496633C0.317551 7.7241 0.199641 7.81535 0.145372 7.86969C0.09103 7.92411 -7.26062e-05 8.04202 4.34242e-08 8.2211L0.0124231 25.9073C0.0126411 26.1809 0.235385 26.4036 0.509056 26.4036H15.5458C16.0749 26.4036 16.5363 26.7629 16.666 27.2758C16.9526 28.41 18.0803 31.8568 21.4677 33.6631C21.354 31.9079 21.3879 29.3078 22.2432 27.1356C22.4171 26.6939 22.8435 26.4036 23.3182 26.4036H27.2509C27.5247 26.4036 27.7475 26.1808 27.7475 25.907V16.02C27.6012 16.0271 27.4549 16.0306 27.3085 16.0306ZM23.9469 23.4004H3.80059V21.0897H23.9469V23.4004ZM23.9469 18.1966H3.80059V15.8859H23.9469V18.1966Z" fill="#249D57"/>
<path d="M27.3082 0.336876C23.6185 0.336876 20.6167 3.33868 20.6167 7.02841C20.6167 10.7181 23.6185 13.7199 27.3082 13.7199C30.998 13.7199 33.9998 10.7181 33.9998 7.02841C33.9998 3.33868 30.998 0.336876 27.3082 0.336876ZM27.089 12.0656C26.3581 12.0656 25.8069 11.5012 25.8069 10.7529C25.8069 9.99876 26.3624 9.43013 27.099 9.43013C27.8299 9.43013 28.3811 9.99876 28.3811 10.7529C28.3812 11.5013 27.8256 12.0656 27.089 12.0656ZM28.6042 6.40944C28.2728 6.80131 28.1521 7.09372 28.1732 7.45283L28.2132 8.43389H26.0852L26.0162 7.552C25.9334 6.78714 26.2077 5.99795 26.8101 5.27647C27.2224 4.79015 27.3754 4.5244 27.3754 4.29432C27.3754 4.1727 27.3754 4.08479 27.0579 4.07964C26.8406 4.07971 26.5706 4.15832 26.4335 4.26257L25.7176 4.807L24.966 2.83457L25.3835 2.53191C25.8361 2.20353 26.5705 1.99125 27.2545 1.99125C28.9096 1.99125 29.6505 3.0908 29.6505 4.18062C29.6505 5.09361 29.1766 5.73016 28.6042 6.40944Z" fill="#249D57"/>
</g>
<defs>
<clipPath id="clip0_29_416">
<rect width="34" height="34" fill="white"/>
</clipPath>
</defs>
</svg>
