<svg width="34" height="34" viewBox="0 0 34 34" fill="none" xmlns="http://www.w3.org/2000/svg">
<path d="M8.03516 34H16.0039C17.1021 34 17.9961 33.106 17.9961 32.0078V24.0391H6.04297V32.0078C6.04297 33.106 6.93693 34 8.03516 34ZM13.0156 26.0312H15.0078V28.0234H13.0156V26.0312ZM13.0156 30.0156H15.0078V32.0078H13.0156V30.0156ZM9.03125 26.0312H11.0234V28.0234H9.03125V26.0312ZM9.03125 30.0156H11.0234V32.0078H9.03125V30.0156Z" fill="#249D57"/>
<path d="M4.05078 10.0273V19.2298C4.05078 19.7541 4.26381 20.2677 4.63443 20.6383L5.45932 21.4632C5.62946 21.6334 5.75311 21.8348 5.85059 22.0469H18.1884C18.286 21.8348 18.4096 21.6334 18.5797 21.4632L19.4046 20.6383C19.7752 20.2677 19.9882 19.7541 19.9882 19.2298V10.0273C19.9882 8.92912 19.0943 8.03516 17.996 8.03516H6.04297C4.94474 8.03516 4.05078 8.92912 4.05078 10.0273ZM9.73549 14.3036L11.0234 15.5915L14.3036 12.3113L15.7121 13.7199L11.0234 18.4085L8.32701 15.7121L9.73549 14.3036Z" fill="#249D57"/>
<path d="M17.9961 1.99219L16.0039 0L14.0117 1.99219L12.0195 0L10.0273 1.99219L8.03516 0L6.04297 1.99219V6.04297H17.9961V1.99219Z" fill="#249D57"/>
<path d="M19.9883 30.0156H24.9688V10.0273H21.9805V19.2298C21.9805 20.2784 21.5554 21.3056 20.8132 22.0469L19.9883 22.8718V30.0156Z" fill="#249D57"/>
<path d="M26.9609 10.0273H29.9492V30.0156H26.9609V10.0273Z" fill="#249D57"/>
</svg>
