<svg width="34" height="34" viewBox="0 0 34 34" fill="none" xmlns="http://www.w3.org/2000/svg">
<path d="M33.7486 0.251469C33.4132 -0.083823 32.8696 -0.083823 32.5343 0.251469L30.8602 1.92556L30.5046 1.56996C30.0303 1.0957 29.2615 1.0957 28.7873 1.56996L28.3579 1.9993L32.0008 5.64216L32.4301 5.21282C32.9044 4.73856 32.9044 3.96977 32.4301 3.49552L32.0745 3.13984L33.7486 1.46575C34.0839 1.13046 34.0839 0.586836 33.7486 0.251469Z" fill="#249D57"/>
<path d="M31.1445 6.49953L22.29 15.3541L18.6473 11.7115L27.5019 2.85691L31.1445 6.49953Z" fill="#249D57"/>
<path d="M17.7852 12.5721L15.6832 14.6741C13.9378 16.4195 12.5746 18.4976 11.6686 20.7755C11.5682 21.028 11.5672 21.2802 11.631 21.5106L11.1066 22.035C10.8694 22.2722 10.8694 22.6564 11.1066 22.8936C11.2252 23.0121 11.3805 23.0714 11.5359 23.0714C11.6912 23.0714 11.8465 23.0121 11.9651 22.8936L12.4896 22.3691C12.7199 22.4329 12.9722 22.4319 13.2246 22.3315C15.5026 21.4256 17.5807 20.0623 19.3261 18.3169L21.428 16.215L17.7852 12.5721Z" fill="#249D57"/>
<path d="M8.5 0C8.17746 0 7.86914 0.128069 7.64146 0.355748L0.355748 7.64146C0.128069 7.86914 0 8.17805 0 8.5H8.5V0Z" fill="#249D57"/>
<path d="M32.245 22.0611L24.9593 17.204C24.5513 16.9324 24.0201 16.9324 23.6122 17.204L16.3265 22.0611C15.8818 22.3581 15.6826 22.9113 15.8379 23.423C15.9932 23.9353 16.4652 24.2857 17 24.2857H31.5714C32.1062 24.2857 32.5782 23.9353 32.7335 23.423C32.8889 22.9113 32.6897 22.3581 32.245 22.0611Z" fill="#249D57"/>
<path d="M17 25.5V32.7857C17 33.4563 17.5437 34 18.2143 34H21.8571V29.1429C21.8571 28.4722 22.4008 27.9286 23.0714 27.9286H25.5C26.1706 27.9286 26.7143 28.4722 26.7143 29.1429V34H30.3571C31.0278 34 31.5714 33.4563 31.5714 32.7857V25.5H17Z" fill="#249D57"/>
<path d="M15.7857 30.3571H4.25C3.91441 30.3571 3.64286 30.0856 3.64286 29.75C3.64286 29.4144 3.91441 29.1429 4.25 29.1429H15.7857V26.7143H4.25C3.91441 26.7143 3.64286 26.4427 3.64286 26.1071C3.64286 25.7716 3.91441 25.5 4.25 25.5H15.7857V25.1465C15.2708 24.846 14.8595 24.3807 14.6758 23.7752C14.6048 23.5417 14.5784 23.305 14.5781 23.0714H14.522C14.2416 23.2057 13.9637 23.344 13.6726 23.4598C13.4402 23.5523 13.1994 23.6062 12.954 23.6222L12.8235 23.7521C12.4796 24.096 12.0219 24.2857 11.5357 24.2857C11.0495 24.2857 10.5918 24.096 10.2479 23.7521C10.0531 23.5573 9.91425 23.3238 9.82486 23.0714H4.25C3.91441 23.0714 3.64286 22.7999 3.64286 22.4643C3.64286 22.1287 3.91441 21.8571 4.25 21.8571H9.82486C9.91425 21.6048 10.0531 21.3713 10.2479 21.1765L10.3772 21.0466C10.3926 20.8018 10.4471 20.5593 10.5408 20.3256C10.663 20.0183 10.8142 19.7276 10.951 19.4286H4.25C3.91441 19.4286 3.64286 19.157 3.64286 18.8214C3.64286 18.4858 3.91441 18.2143 4.25 18.2143H11.5481C12.0117 17.3639 12.5431 16.5561 13.13 15.7857H4.25C3.91441 15.7857 3.64286 15.5142 3.64286 15.1786C3.64286 14.843 3.91441 14.5714 4.25 14.5714H14.1408C14.3681 14.3191 14.5824 14.0572 14.824 13.8155L16.4967 12.1429H4.25C3.91441 12.1429 3.64286 11.8713 3.64286 11.5357C3.64286 11.2001 3.91441 10.9286 4.25 10.9286H17.7111L20.1397 8.5H12.75C12.4144 8.5 12.1429 8.22845 12.1429 7.89286C12.1429 7.55727 12.4144 7.28571 12.75 7.28571H21.3541L24.2857 4.3542V1.21429C24.2857 0.543701 23.7426 0 23.0714 0H9.71429V9.10714C9.71429 9.44273 9.44273 9.71429 9.10714 9.71429H0V32.7857C0 33.4563 0.543108 34 1.21429 34H16.1235C15.9144 33.6414 15.7857 33.23 15.7857 32.7857V30.3571Z" fill="#249D57"/>
</svg>
